<?xml version="1.0" encoding="iso-8859-1"?>
<!-- Uploaded to: SVG Repo, www.svgrepo.com, Generator: SVG Repo Mixer Tools -->
<svg height="800px" width="800px" version="1.1" id="Layer_1" xmlns="http://www.w3.org/2000/svg" xmlns:xlink="http://www.w3.org/1999/xlink" 
	 viewBox="0 0 512.001 512.001" xml:space="preserve">
<path style="fill:#47CEAC;" d="M512.001,256.006c0,141.395-114.606,255.998-255.996,255.994
	C114.606,512.004,0.001,397.402,0.001,256.006C-0.007,114.61,114.606,0,256.005,0C397.395,0,512.001,114.614,512.001,256.006z"/>
<path style="fill:#36BB9A;" d="M507.404,304.218c-0.343-0.348-202.698-202.713-203.2-203.2
	c-12.223-12.608-29.299-20.484-48.204-20.484c-37.053,0-67.2,30.147-67.2,67.2c0,19.483,8.343,37.042,21.636,49.319
	c0.5,0.491,37.774,37.806,38.097,38.111v133.7c-0.064-0.051-0.139-0.087-0.205-0.138c-0.429-0.574-23.211-23.356-23.783-23.785
	c-1.362-1.82-3.431-3.075-5.878-3.075c-39.054,0-112,13.139-112,44.8c0,6.066,2.963,11.453,8.156,16.229
	c0.481,0.5,105.013,105.054,105.541,105.54c0.385,0.401,0.783,0.798,1.193,1.193c11.274,1.517,22.758,2.372,34.448,2.372
	C380.907,512.003,484.848,422.55,507.404,304.218z"/>
<g>
	<path style="fill:#F4F6F9;" d="M293.334,341.867c-4.124,0-7.467,3.343-7.467,7.467c0,4.124,3.343,7.467,7.467,7.467
		c49.996,0,97.067,16.826,97.067,29.867c0,12.177-52.357,29.867-134.4,29.867c-89.487,0-134.4-19.148-134.4-29.867
		c0-13.041,47.071-29.867,97.067-29.867c4.124,0,7.467-3.343,7.467-7.467c0-4.124-3.343-7.467-7.467-7.467
		c-39.054,0-112,13.139-112,44.8c0,30.946,75.002,44.8,149.333,44.8c55.465,0,149.333-9.436,149.333-44.8
		C405.334,355.006,332.388,341.867,293.334,341.867z"/>
	<path style="fill:#F4F6F9;" d="M248.534,214.493v172.174c0,4.124,3.343,7.467,7.467,7.467c4.124,0,7.467-3.343,7.467-7.467V214.493
		c33.548-3.73,59.733-32.234,59.733-66.759c0-37.053-30.147-67.2-67.2-67.2s-67.2,30.147-67.2,67.2
		C188.801,182.259,214.986,210.763,248.534,214.493z M256.001,95.467c28.82,0,52.267,23.446,52.267,52.267S284.821,200,256.001,200
		s-52.267-23.446-52.267-52.267S227.18,95.467,256.001,95.467z"/>
</g>
</svg>